# xmcd
#
# Track frame offsets:
#	150
#	16082
#	31533
#	52053
#	67852
#	85681
#	99614
#	116829
#	131409
#	152087
#	168109
#
# Disc length: 2459 seconds
#
# Revision: 1
# Processed by: cddbd v1.5.2PL0 Copyright (c) Steve Scherf et al.
# Submitted via: audiograbber 1.83.01
#
DISCID=7a09990b
DTITLE=HP Lange - Travelling man blues
DYEAR=2016
DGENRE=Blues
TTITLE0=Travelling man blues
TTITLE1=Last night
TTITLE2=Hey girl
TTITLE3=Stones in my passway
TTITLE4=Walking add for love
TTITLE5=Jesus blood
TTITLE6=Wretched mind
TTITLE7=Lies and cheats
TTITLE8=Shake´m on down
TTITLE9=When the moon comes up
TTITLE10=In time
EXTD=
EXTT0=
EXTT1=
EXTT2=
EXTT3=
EXTT4=
EXTT5=
EXTT6=
EXTT7=
EXTT8=
EXTT9=
EXTT10=
PLAYORDER=
